<svg xmlns="http://www.w3.org/2000/svg" viewBox="0 0 1868.2 1204.74"><defs><style>.cls-1{fill:#feaa61;}.cls-2{fill:#00205c;}</style></defs><g id="Capa_2" data-name="Capa 2"><g id="Capa_1-2" data-name="Capa 1"><path class="cls-1" d="M395.12,1171.31A13.69,13.69,0,0,1,409,1157.79a13.49,13.49,0,0,1,13.52,13.52A13.69,13.69,0,0,1,409,1185.2,13.89,13.89,0,0,1,395.12,1171.31Z"/><path class="cls-1" d="M465.45,1171.49c0-18.81,14-33.24,33.25-33.24A31.88,31.88,0,0,1,526.1,1153l-12.61,7.31c-2.83-4.93-8.31-7.85-14.79-7.85-11.33,0-18.64,7.58-18.64,19s7.31,19,18.64,19c6.48,0,12.05-2.92,14.79-7.85L526.1,1190c-5.48,9-15.71,14.79-27.4,14.79C479.42,1204.74,465.45,1190.31,465.45,1171.49Z"/><path class="cls-1" d="M606.92,1193.42H583.17l-3.2,10H564l21.74-63.93h18.63l21.74,63.93h-16Zm-4.38-13.7-7.49-23.48-7.49,23.48Z"/><path class="cls-1" d="M703.18,1203.46l-20.46-29.59v29.59H668.11v-63.93h14.61v27.76l19.55-27.76h16.62l-21.55,31.14,22.47,32.79Z"/><path class="cls-1" d="M802,1189.4v14.06H761.81v-63.93h39.73v14.06H776.42v10.6h22.84v13.88H776.42v11.33Z"/><path class="cls-1" d="M902.91,1188.94l12.61-7.31c2.28,5.3,6.21,8.86,13.42,8.86,6.95,0,8.68-2.74,8.68-5.2,0-3.93-3.65-5.48-13.24-8.13s-18.82-7.22-18.82-19.46S916,1138.25,927,1138.25c10.5,0,18.72,5,23.38,14.43l-12.33,7.21c-2.19-4.56-5.21-7.39-11.05-7.39-4.57,0-6.86,2.28-6.86,4.84,0,2.92,1.56,4.93,11.51,7.94,9.69,2.93,20.56,6.31,20.56,19.82,0,12.34-9.87,19.64-23.75,19.64C915.06,1204.74,906.47,1198.35,902.91,1188.94Z"/><path class="cls-1" d="M1036.72,1153.59h-16.45v49.87h-14.61v-49.87H989.22v-14.06h47.5Z"/><path class="cls-1" d="M1079.18,1182.82v-43.29h14.61v42c0,4.84,2.29,9,10,9s10.05-4.11,10.05-9v-42h14.61v43.29c0,13.7-10.59,21.92-24.66,21.92S1079.18,1196.52,1079.18,1182.82Z"/><path class="cls-1" d="M1232.16,1171.49c0,18.09-13.43,32-31.06,32h-25.57v-63.93h25.57C1218.73,1139.53,1232.16,1153.41,1232.16,1171.49Zm-14.07,0c0-11-6.94-17.9-17-17.9h-11v35.81h11C1211.15,1189.4,1218.09,1182.46,1218.09,1171.49Z"/><path class="cls-1" d="M1291.52,1139.53v63.93H1276.9v-63.93Z"/><path class="cls-1" d="M1336.27,1171.49a33.25,33.25,0,1,1,33.24,33.25A33,33,0,0,1,1336.27,1171.49Zm51.88,0c0-11.41-8.22-19-18.64-19s-18.63,7.58-18.63,19,8.22,19,18.63,19S1388.15,1182.91,1388.15,1171.49Z"/><path class="cls-1" d="M1445.68,1171.31a13.69,13.69,0,0,1,13.88-13.52,13.49,13.49,0,0,1,13.52,13.52,13.69,13.69,0,0,1-13.52,13.89A13.88,13.88,0,0,1,1445.68,1171.31Z"/><polygon class="cls-1" points="867.59 284.69 867.59 284.71 874.52 290.34 867.59 284.69"/><polygon class="cls-1" points="985.75 320.16 979.08 305.05 979.07 305.06 985.74 320.17 985.75 320.16"/><path class="cls-1" d="M873,359.78l-.13.1a72.46,72.46,0,0,1-7.11,4.77l-1.7,1v29.74A54.62,54.62,0,0,1,809.55,450h-9.84v22.89h9.84A77.53,77.53,0,0,0,887,395.41v-48L881.11,353A84.18,84.18,0,0,1,873,359.78Z"/><path class="cls-1" d="M841.41,204.09l3.57.08V181.33l-3.35-.14a21.59,21.59,0,1,1,22.47-21.57V264.67L887,283.29V234.61h17.68a61.44,61.44,0,0,1,56.18,36.61L985,325.8c.57,1.51,6.48,16.52,16.92,25.2l.09.07a44,44,0,0,0,27.22,9.36,44.49,44.49,0,0,0,0-89,44,44,0,0,0-26.55,8.84l-2.23,1.66L1010,303.7l2.83-2.31h0l2.78-2.25a21.29,21.29,0,0,1,13.56-4.81,21.6,21.6,0,1,1-19.33,31.19c-.27-.53-.51-1.1-.76-1.72l-6.31-14.3h0l-21-47.52a84.85,84.85,0,0,0-41.3-42.25,86.26,86.26,0,0,0,27.09-29.59L985,158.8A40.37,40.37,0,0,1,1020.27,138h18.23v-22.9h-18.23A63.28,63.28,0,0,0,965,147.69L947.58,179a63.52,63.52,0,0,1-55.52,32.69H887v-52.1a44.49,44.49,0,0,0-89,0A44.76,44.76,0,0,0,841.41,204.09Z"/><path class="cls-1" d="M1007.67,398.21c0-.93-.08-1.87-.08-2.8V365.67l-1.69-1a72.46,72.46,0,0,1-7.11-4.77l-.13-.1a82.86,82.86,0,0,1-8.07-6.79l-5.89-5.62v48c0,1.32,0,2.66.1,4A77.75,77.75,0,0,0,986.27,411c.26,1.25.55,2.51.87,3.75a77.45,77.45,0,0,0,75,58.11H1072V450h-9.84A54.49,54.49,0,0,1,1007.67,398.21Z"/><path class="cls-1" d="M935.85,334.6l-59.13-48.15-7-5.67a44,44,0,0,0-27.21-9.33,44.49,44.49,0,0,0,0,89,44.06,44.06,0,0,0,26.38-8.74c4.56-3.49,11-9.55,14.31-15.11l1.51-2.57-20.07-16.36-1.57,4.86,0,.14a21.59,21.59,0,1,1-20.52-28.31,21.31,21.31,0,0,1,13.56,4.81l38.5,31.33v0l41.29,33.64,41.34-33.69-9.59-21.72Z"/><path class="cls-1" d="M934.1,595.28c-164.12,0-297.64-133.52-297.64-297.64S770,0,934.1,0s297.64,133.52,297.64,297.64S1098.22,595.28,934.1,595.28Zm0-569.09C784.43,26.19,662.66,148,662.66,297.64S784.43,569.09,934.1,569.09s271.45-121.77,271.45-271.45S1083.78,26.19,934.1,26.19Z"/><polygon class="cls-2" points="1833.01 787.55 1838.08 787.55 1838.08 770.24 1843.79 770.24 1843.79 765.36 1827.3 765.36 1827.3 770.24 1833.01 770.24 1833.01 787.55"/><polygon class="cls-2" points="1851.08 774.65 1856.82 784.06 1857.39 784.06 1863.13 774.65 1863.13 787.55 1868.2 787.55 1868.2 765.36 1863.13 765.36 1857.11 775.22 1851.08 765.36 1846.01 765.36 1846.01 787.55 1851.08 787.55 1851.08 774.65"/><path class="cls-2" d="M1126.58,787.18a78.58,78.58,0,1,0,78.57,78.57A78.66,78.66,0,0,0,1126.58,787.18Zm0,128.49a49.92,49.92,0,1,1,49.91-49.92A50,50,0,0,1,1126.58,915.67Z"/><path class="cls-2" d="M1613.68,787.18a78.58,78.58,0,1,0,78.57,78.57A78.66,78.66,0,0,0,1613.68,787.18Zm0,128.49a49.92,49.92,0,1,1,49.91-49.92A50,50,0,0,1,1613.68,915.67Z"/><polygon class="cls-2" points="1397.12 816.21 1497.67 816.21 1397.12 922.62 1397.12 943.17 1525.98 943.17 1525.98 914.51 1444.21 914.51 1525.98 827.98 1525.98 787.55 1397.12 787.55 1397.12 816.21"/><path class="cls-2" d="M339.71,915a12.4,12.4,0,0,1-4.06.68,12.57,12.57,0,0,1-12.56-12.56V787.18H294.43v17.94a78.58,78.58,0,1,0,4.69,117.07,41.26,41.26,0,0,0,45.36,21.18l-4.66-28.15Zm-95.2.69a49.92,49.92,0,1,1,49.92-49.92A50,50,0,0,1,244.51,915.67Z"/><path class="cls-2" d="M408.81,773.18V727.44H380.15v60.11H350.43v28.69h29.72v94.23h0a33.84,33.84,0,0,0,52.16,28.46l-14.82-24.62a5.19,5.19,0,0,1-8.68-3.85V816.24h29.72V787.55H408.81Z"/><path class="cls-2" d="M466.8,727.32c-.92,0-1.84,0-2.75.12h5.54Q468.21,727.32,466.8,727.32Z"/><path class="cls-2" d="M602.36,887h0V852.72a65.14,65.14,0,0,0-101.69-54V727.44H472v182h0v33.85h28.66V852.72a36.52,36.52,0,0,1,73,0v23.16h0v67.41h28.66Z"/><path class="cls-2" d="M1359,939.68h0v-87a65.13,65.13,0,0,0-107.18-49.78,33.82,33.82,0,0,0-46.66-10L1220,817.56a5.14,5.14,0,0,1,3.48-1.35,5.2,5.2,0,0,1,5.2,5.2V943.29h28.66V852.72a36.51,36.51,0,0,1,73,0v23.16h0v67.41H1359Z"/><path class="cls-2" d="M1846.1,939.68h0v-87a65.13,65.13,0,0,0-107.18-49.78,33.82,33.82,0,0,0-46.66-10l14.82,24.63a5.14,5.14,0,0,1,3.48-1.35,5.21,5.21,0,0,1,5.2,5.2V943.29h28.66V852.72a36.51,36.51,0,0,1,73,0v23.16h0v67.41h28.66Z"/><polygon class="cls-2" points="938.01 787.83 877.61 727.44 851.5 727.44 851.5 743.92 851.5 755.92 851.5 777.4 851.5 786.59 851.5 943.29 880.16 943.29 880.16 777.4 880.16 770.52 938.01 828.36 995.85 770.52 995.85 777.4 995.85 943.29 1024.51 943.29 1024.51 777.4 1024.51 755.92 1024.51 743.92 1024.51 727.44 998.4 727.44 938.01 787.83"/><path class="cls-2" d="M107.44,815.66,130,778.42c8.52-14.06,23-22.46,38.72-22.46h2.93V727.3h-2.93A72.74,72.74,0,0,0,132.49,737a76.1,76.1,0,0,0-27,26.53L82.93,800.81c-7.81,12.88-21.06,20.57-35.44,20.57H28.66v-60.2h0V727.3H0v217H28.66V850H47.49c14.38,0,27.63,7.69,35.44,20.57l22.57,37.24a76.1,76.1,0,0,0,27,26.53,72.63,72.63,0,0,0,36.24,9.74h2.93V915.46h-2.93c-15.72,0-30.2-8.4-38.72-22.46l-22.57-37.24a72.9,72.9,0,0,0-18-20A72.76,72.76,0,0,0,107.44,815.66Z"/><path class="cls-2" d="M770.31,956.22V821h0V787.18H741.65v90.57a36.52,36.52,0,0,1-73,0V854.59h0V787.18H640v90.57a65.14,65.14,0,0,0,101.69,54v24.51h0v16.56a36.55,36.55,0,0,1-36.51,36.51h0a36.55,36.55,0,0,1-36.51-36.51V957.09H640v15.69a65.18,65.18,0,1,0,130.35,0V956.23Z"/></g></g></svg>